<?xml version="1.0" encoding="UTF-8"?>
<svg width="512" height="512" viewBox="0 0 512 512" fill="none" xmlns="http://www.w3.org/2000/svg">
    <rect width="512" height="512" rx="128" fill="#4CAF50"/>
    <circle cx="256" cy="256" r="200" fill="#ffffff" opacity="0.1"/>
    <g transform="translate(128,128) scale(0.5,0.5)">
        <path d="M256 32C132.4 32 32 132.4 32 256s100.4 224 224 224 224-100.4 224-224S379.6 32 256 32zm0 400c-97.2 0-176-78.8-176-176S158.8 80 256 80s176 78.8 176 176-78.8 176-176 176z" fill="#ffffff"/>
        <path d="M256 128c-70.7 0-128 57.3-128 128s57.3 128 128 128 128-57.3 128-128-57.3-128-128-128zm0 208c-44.2 0-80-35.8-80-80s35.8-80 80-80 80 35.8 80 80-35.8 80-80 80z" fill="#ffffff"/>
        <circle cx="256" cy="256" r="48" fill="#ffffff"/>
        <path d="M304 224h-32v-32c0-8.8-7.2-16-16-16s-16 7.2-16 16v32h-32c-8.8 0-16 7.2-16 16s7.2 16 16 16h32v32c0 8.8 7.2 16 16 16s16-7.2 16-16v-32h32c8.8 0 16-7.2 16-16s-7.2-16-16-16z" fill="#ffffff"/>
    </g>
</svg>